<svg width="180" height="54" viewBox="0 0 180 54" fill="none" xmlns="http://www.w3.org/2000/svg">
<g clip-path="url(#clip0_625_5519)">
<path d="M173.596 53.3444H6.30533C2.82933 53.3444 0 50.5065 0 47.0324V6.30264C0 2.82725 2.82933 0 6.30533 0H173.596C177.071 0 180 2.82725 180 6.30264V47.0324C180 50.5065 177.071 53.3444 173.596 53.3444Z" fill="#A6A6A6"/>
<path d="M178.709 47.0343C178.709 49.8562 176.424 52.142 173.597 52.142H6.30519C3.47986 52.142 1.18652 49.8562 1.18652 47.0343V6.30189C1.18652 3.48131 3.47986 1.1875 6.30519 1.1875H173.596C176.424 1.1875 178.708 3.48131 178.708 6.30189L178.709 47.0343Z" fill="black"/>
<path d="M40.1709 26.3842C40.1323 22.086 43.6896 19.9949 43.8523 19.8976C41.8376 16.9596 38.7149 16.5582 37.6176 16.5262C34.9949 16.2501 32.4509 18.0958 31.1149 18.0958C29.7523 18.0958 27.6949 16.5529 25.4776 16.5982C22.6243 16.6422 19.9549 18.2946 18.4909 20.8604C15.4696 26.0922 17.7229 33.7804 20.6176 38.0093C22.0656 40.0804 23.7576 42.3929 25.9723 42.3115C28.1389 42.2222 28.9483 40.9299 31.5629 40.9299C34.1536 40.9299 34.9136 42.3115 37.1723 42.2595C39.4976 42.2222 40.9616 40.1791 42.3589 38.0893C44.0323 35.7155 44.7043 33.3777 44.7309 33.2577C44.6763 33.239 40.2149 31.536 40.1709 26.3842Z" fill="white"/>
<path d="M35.904 13.7441C37.0694 12.2865 37.8667 10.3034 37.6454 8.29102C35.9587 8.3657 33.8494 9.45792 32.6347 10.8836C31.5601 12.1398 30.6001 14.1989 30.8481 16.1353C32.7427 16.2767 34.688 15.1791 35.904 13.7441Z" fill="white"/>
<path d="M71.5269 42.0172H68.4989L66.8402 36.8041H61.0749L59.4949 42.0172H56.5469L62.2589 24.2695H65.7869L71.5269 42.0172ZM66.3402 34.617L64.8402 29.9827C64.6815 29.5093 64.3842 28.3944 63.9455 26.6394H63.8922C63.7175 27.3942 63.4362 28.5091 63.0495 29.9827L61.5762 34.617H66.3402V34.617Z" fill="white"/>
<path d="M86.2164 35.461C86.2164 37.6375 85.6284 39.3579 84.4524 40.6208C83.399 41.745 82.091 42.3065 80.5297 42.3065C78.8444 42.3065 77.6337 41.701 76.8964 40.4901H76.843V47.2315H74.0004V33.4326C74.0004 32.0643 73.9644 30.6601 73.895 29.2198H76.395L76.5537 31.2482H76.607C77.555 29.7199 78.9937 28.957 80.9244 28.957C82.4337 28.957 83.6937 29.5532 84.7017 30.7467C85.7124 31.9416 86.2164 33.5126 86.2164 35.461ZM83.3204 35.5651C83.3204 34.3195 83.0404 33.2926 82.4777 32.4844C81.863 31.6416 81.0377 31.2202 80.003 31.2202C79.3017 31.2202 78.6643 31.4549 78.095 31.9176C77.5243 32.3844 77.151 32.9939 76.9763 33.7487C76.8883 34.1008 76.8444 34.3888 76.8444 34.6155V36.7493C76.8444 37.6802 77.1297 38.4657 77.7004 39.1071C78.271 39.7486 79.0124 40.0687 79.9244 40.0687C80.995 40.0687 81.8284 39.6553 82.4244 38.8311C83.0217 38.0056 83.3204 36.9173 83.3204 35.5651Z" fill="white"/>
<path d="M100.932 35.461C100.932 37.6375 100.344 39.3579 99.167 40.6208C98.115 41.745 96.807 42.3065 95.2456 42.3065C93.5603 42.3065 92.3496 41.701 91.6136 40.4901H91.5603V47.2315H88.7176V33.4326C88.7176 32.0643 88.6816 30.6601 88.6123 29.2198H91.1123L91.271 31.2482H91.3243C92.271 29.7199 93.7096 28.957 95.6416 28.957C97.1496 28.957 98.4096 29.5532 99.4203 30.7467C100.427 31.9416 100.932 33.5126 100.932 35.461ZM98.0363 35.5651C98.0363 34.3195 97.755 33.2926 97.1923 32.4844C96.5776 31.6416 95.755 31.2202 94.719 31.2202C94.0163 31.2202 93.3803 31.4549 92.8096 31.9176C92.239 32.3844 91.867 32.9939 91.6923 33.7487C91.6056 34.1008 91.5603 34.3888 91.5603 34.6155V36.7493C91.5603 37.6802 91.8456 38.4657 92.4136 39.1071C92.9843 39.7473 93.7256 40.0687 94.6403 40.0687C95.711 40.0687 96.5443 39.6553 97.1403 38.8311C97.7376 38.0056 98.0363 36.9173 98.0363 35.5651Z" fill="white"/>
<path d="M117.385 37.0385C117.385 38.5482 116.861 39.7764 115.809 40.7246C114.653 41.7608 113.044 42.2783 110.976 42.2783C109.067 42.2783 107.536 41.9102 106.377 41.1727L107.036 38.8029C108.284 39.5577 109.653 39.9364 111.145 39.9364C112.216 39.9364 113.049 39.6937 113.648 39.211C114.244 38.7282 114.541 38.0801 114.541 37.2719C114.541 36.5517 114.296 35.9449 113.804 35.4528C113.315 34.9607 112.497 34.5033 111.356 34.0806C108.249 32.9217 106.697 31.224 106.697 28.9915C106.697 27.5325 107.241 26.3363 108.331 25.4054C109.416 24.4732 110.864 24.0078 112.675 24.0078C114.289 24.0078 115.631 24.2892 116.701 24.8507L115.991 27.1685C114.991 26.6244 113.86 26.3523 112.595 26.3523C111.595 26.3523 110.813 26.599 110.253 27.0898C109.78 27.5285 109.543 28.0633 109.543 28.6968C109.543 29.3983 109.813 29.9784 110.357 30.4345C110.831 30.8559 111.691 31.312 112.939 31.8041C114.465 32.4189 115.587 33.1377 116.308 33.9619C117.027 34.7834 117.385 35.8116 117.385 37.0385Z" fill="white"/>
<path d="M126.784 31.3517H123.651V37.565C123.651 39.1453 124.203 39.9348 125.31 39.9348C125.818 39.9348 126.239 39.8908 126.572 39.8028L126.651 41.9619C126.091 42.1713 125.354 42.2767 124.44 42.2767C123.318 42.2767 122.44 41.9339 121.807 41.2498C121.176 40.5643 120.859 39.4147 120.859 37.7997V31.3491H118.992V29.2153H120.859V26.8721L123.651 26.0293V29.2153H126.784V31.3517Z" fill="white"/>
<path d="M140.921 35.5117C140.921 37.4788 140.359 39.0938 139.236 40.3567C138.059 41.657 136.496 42.3051 134.548 42.3051C132.671 42.3051 131.176 41.6823 130.061 40.4367C128.946 39.1912 128.389 37.6188 128.389 35.7238C128.389 33.7407 128.962 32.1164 130.113 30.8534C131.261 29.5892 132.81 28.957 134.758 28.957C136.636 28.957 138.146 29.5798 139.286 30.8268C140.377 32.0363 140.921 33.598 140.921 35.5117ZM137.972 35.6037C137.972 34.4235 137.72 33.4113 137.209 32.5671C136.613 31.5456 135.761 31.0361 134.657 31.0361C133.514 31.0361 132.646 31.5469 132.05 32.5671C131.54 33.4126 131.288 34.4408 131.288 35.6571C131.288 36.8373 131.54 37.8495 132.05 38.6924C132.665 39.7139 133.524 40.2234 134.632 40.2234C135.717 40.2234 136.569 39.7033 137.184 38.6657C137.708 37.8055 137.972 36.7827 137.972 35.6037Z" fill="white"/>
<path d="M150.162 31.7203C149.88 31.6683 149.58 31.6416 149.266 31.6416C148.266 31.6416 147.492 32.019 146.948 32.7752C146.475 33.442 146.238 34.2848 146.238 35.3023V42.0171H143.396L143.423 33.2499C143.423 31.7749 143.387 30.432 143.316 29.2211H145.792L145.896 31.6696H145.975C146.275 30.8281 146.748 30.1506 147.396 29.6425C148.03 29.1851 148.714 28.957 149.451 28.957C149.714 28.957 149.951 28.9757 150.162 29.009V31.7203Z" fill="white"/>
<path d="M162.875 35.0096C162.875 35.5191 162.841 35.9485 162.771 36.2992H154.243C154.276 37.5635 154.688 38.5303 155.48 39.1971C156.199 39.7933 157.128 40.092 158.269 40.092C159.532 40.092 160.684 39.8906 161.72 39.4865L162.165 41.4603C160.955 41.9884 159.525 42.2511 157.876 42.2511C155.892 42.2511 154.335 41.667 153.201 40.5001C152.071 39.3332 151.504 37.7662 151.504 35.8004C151.504 33.8707 152.031 32.2637 153.085 30.9821C154.189 29.6138 155.681 28.9297 157.559 28.9297C159.403 28.9297 160.799 29.6138 161.747 30.9821C162.497 32.069 162.875 33.4133 162.875 35.0096ZM160.164 34.2721C160.183 33.4293 159.997 32.7011 159.612 32.0863C159.12 31.2955 158.364 30.9008 157.347 30.9008C156.417 30.9008 155.661 31.2862 155.084 32.0597C154.611 32.6745 154.329 33.4119 154.243 34.2708H160.164V34.2721Z" fill="white"/>
<path d="M65.3997 13.3471C65.3997 14.9168 64.929 16.0983 63.989 16.8918C63.1184 17.624 61.881 17.9907 60.2784 17.9907C59.4837 17.9907 58.8037 17.9561 58.2344 17.8867V9.31028C58.977 9.19025 59.777 9.12891 60.641 9.12891C62.1677 9.12891 63.3184 9.46097 64.0944 10.1251C64.9637 10.8759 65.3997 11.9495 65.3997 13.3471ZM63.9264 13.3858C63.9264 12.3682 63.657 11.5881 63.1184 11.044C62.5797 10.5012 61.793 10.2291 60.757 10.2291C60.317 10.2291 59.9424 10.2585 59.6317 10.3198V16.8398C59.8037 16.8665 60.1184 16.8785 60.5757 16.8785C61.645 16.8785 62.4704 16.5811 63.0517 15.9863C63.633 15.3915 63.9264 14.5247 63.9264 13.3858Z" fill="white"/>
<path d="M73.2117 14.7193C73.2117 15.6862 72.9357 16.4784 72.3837 17.0998C71.805 17.7386 71.0383 18.0574 70.081 18.0574C69.1583 18.0574 68.4237 17.752 67.8757 17.1385C67.329 16.5264 67.0557 15.7542 67.0557 14.8234C67.0557 13.8498 67.337 13.051 67.9023 12.4309C68.4677 11.8107 69.2277 11.5 70.185 11.5C71.1077 11.5 71.849 11.8054 72.4103 12.4175C72.9437 13.0123 73.2117 13.7805 73.2117 14.7193ZM71.7623 14.7647C71.7623 14.1846 71.637 13.6871 71.3877 13.2724C71.0943 12.7709 70.677 12.5202 70.1343 12.5202C69.573 12.5202 69.1463 12.7709 68.853 13.2724C68.6023 13.6871 68.4783 14.1926 68.4783 14.79C68.4783 15.3701 68.6037 15.8676 68.853 16.2823C69.1557 16.7838 69.577 17.0345 70.121 17.0345C70.6543 17.0345 71.073 16.7798 71.3743 16.269C71.633 15.8462 71.7623 15.3448 71.7623 14.7647Z" fill="white"/>
<path d="M83.6862 11.6289L81.7196 17.9155H80.4396L79.6249 15.1856C79.4183 14.5042 79.2503 13.8267 79.1196 13.1546H79.0943C78.9729 13.8454 78.8049 14.5215 78.5889 15.1856L77.7236 17.9155H76.4289L74.5796 11.6289H76.0156L76.7263 14.6175C76.8983 15.3243 77.0396 15.9978 77.1529 16.6353H77.1783C77.2823 16.1098 77.4543 15.4404 77.6969 14.6309L78.5889 11.6302H79.7276L80.5823 14.5668C80.7889 15.283 80.9569 15.9725 81.0862 16.6366H81.1249C81.2196 15.9898 81.3623 15.3003 81.5516 14.5668L82.3143 11.6302H83.6862V11.6289Z" fill="white"/>
<path d="M90.9302 17.9167H89.5329V14.316C89.5329 13.2064 89.1116 12.6516 88.2662 12.6516C87.8516 12.6516 87.5169 12.8037 87.2569 13.109C86.9996 13.4144 86.8689 13.7745 86.8689 14.1866V17.9154H85.4716V13.4264C85.4716 12.8743 85.4542 12.2755 85.4209 11.6274H86.6489L86.7142 12.6103H86.7529C86.9156 12.3049 87.1582 12.0528 87.4769 11.8515C87.8556 11.6167 88.2796 11.498 88.7436 11.498C89.3302 11.498 89.8182 11.6874 90.2062 12.0675C90.6889 12.5329 90.9302 13.2277 90.9302 14.1506V17.9167V17.9167Z" fill="white"/>
<path d="M94.7837 17.9154H93.3877V8.74414H94.7837V17.9154Z" fill="white"/>
<path d="M103.01 14.7193C103.01 15.6862 102.734 16.4784 102.182 17.0998C101.603 17.7386 100.835 18.0574 99.8793 18.0574C98.9553 18.0574 98.2207 17.752 97.674 17.1385C97.1273 16.5264 96.854 15.7542 96.854 14.8234C96.854 13.8498 97.1353 13.051 97.7007 12.4309C98.266 11.8107 99.026 11.5 99.982 11.5C100.906 11.5 101.646 11.8054 102.209 12.4175C102.742 13.0123 103.01 13.7805 103.01 14.7193ZM101.559 14.7647C101.559 14.1846 101.434 13.6871 101.185 13.2724C100.893 12.7709 100.474 12.5202 99.9327 12.5202C99.37 12.5202 98.9433 12.7709 98.6513 13.2724C98.4007 13.6871 98.2767 14.1926 98.2767 14.79C98.2767 15.3701 98.402 15.8676 98.6513 16.2823C98.954 16.7838 99.3753 17.0345 99.9193 17.0345C100.453 17.0345 100.87 16.7798 101.171 16.269C101.431 15.8462 101.559 15.3448 101.559 14.7647Z" fill="white"/>
<path d="M109.773 17.9147H108.519L108.415 17.1905H108.376C107.947 17.768 107.335 18.0574 106.54 18.0574C105.947 18.0574 105.467 17.8667 105.105 17.4879C104.777 17.1438 104.613 16.7157 104.613 16.2076C104.613 15.4395 104.933 14.854 105.577 14.4486C106.22 14.0432 107.124 13.8445 108.288 13.8538V13.7365C108.288 12.9083 107.853 12.4949 106.983 12.4949C106.363 12.4949 105.816 12.6509 105.344 12.9603L105.06 12.0428C105.644 11.6814 106.365 11.5 107.216 11.5C108.859 11.5 109.683 12.3668 109.683 14.1005V16.4157C109.683 17.0438 109.713 17.5439 109.773 17.9147ZM108.323 15.7542V14.7847C106.781 14.758 106.011 15.1808 106.011 16.0516C106.011 16.3797 106.099 16.6251 106.279 16.7891C106.459 16.9531 106.688 17.0345 106.961 17.0345C107.268 17.0345 107.555 16.9371 107.816 16.7438C108.079 16.549 108.24 16.3023 108.3 15.9996C108.315 15.9316 108.323 15.8489 108.323 15.7542Z" fill="white"/>
<path d="M117.713 17.9154H116.473L116.408 16.9058H116.369C115.973 17.674 115.298 18.0581 114.35 18.0581C113.593 18.0581 112.962 17.7607 112.462 17.1659C111.962 16.5711 111.713 15.7989 111.713 14.8507C111.713 13.8332 111.984 13.009 112.528 12.3796C113.054 11.7928 113.7 11.4994 114.468 11.4994C115.312 11.4994 115.902 11.7834 116.238 12.3529H116.265V8.74414H117.664V16.2217C117.664 16.8338 117.68 17.3979 117.713 17.9154ZM116.265 15.2642V14.2159C116.265 14.0346 116.252 13.8879 116.226 13.7758C116.148 13.4398 115.978 13.1571 115.721 12.929C115.461 12.701 115.148 12.5863 114.786 12.5863C114.265 12.5863 113.857 12.793 113.557 13.2077C113.26 13.6225 113.109 14.1519 113.109 14.7987C113.109 15.4202 113.252 15.9243 113.538 16.3124C113.841 16.7258 114.249 16.9325 114.76 16.9325C115.218 16.9325 115.585 16.7605 115.864 16.4151C116.133 16.0963 116.265 15.7122 116.265 15.2642Z" fill="white"/>
<path d="M129.664 14.7193C129.664 15.6862 129.388 16.4784 128.836 17.0998C128.257 17.7386 127.492 18.0574 126.533 18.0574C125.612 18.0574 124.877 17.752 124.328 17.1385C123.781 16.5264 123.508 15.7542 123.508 14.8234C123.508 13.8498 123.789 13.051 124.354 12.4309C124.92 11.8107 125.68 11.5 126.638 11.5C127.56 11.5 128.302 11.8054 128.863 12.4175C129.396 13.0123 129.664 13.7805 129.664 14.7193ZM128.216 14.7647C128.216 14.1846 128.09 13.6871 127.841 13.2724C127.546 12.7709 127.13 12.5202 126.586 12.5202C126.026 12.5202 125.6 12.7709 125.305 13.2724C125.054 13.6871 124.93 14.1926 124.93 14.79C124.93 15.3701 125.056 15.8676 125.305 16.2823C125.608 16.7838 126.029 17.0345 126.573 17.0345C127.106 17.0345 127.526 16.7798 127.828 16.269C128.085 15.8462 128.216 15.3448 128.216 14.7647Z" fill="white"/>
<path d="M137.177 17.9167H135.781V14.316C135.781 13.2064 135.36 12.6516 134.513 12.6516C134.098 12.6516 133.764 12.8037 133.505 13.109C133.246 13.4144 133.117 13.7745 133.117 14.1866V17.9154H131.718V13.4264C131.718 12.8743 131.702 12.2755 131.669 11.6274H132.896L132.961 12.6103H133C133.164 12.3049 133.406 12.0528 133.724 11.8515C134.104 11.6167 134.526 11.498 134.992 11.498C135.577 11.498 136.065 11.6874 136.453 12.0675C136.937 12.5329 137.177 13.2277 137.177 14.1506V17.9167V17.9167Z" fill="white"/>
<path d="M146.581 12.675H145.043V15.729C145.043 16.5052 145.316 16.8932 145.857 16.8932C146.108 16.8932 146.316 16.8719 146.48 16.8279L146.516 17.8881C146.24 17.9921 145.877 18.0442 145.431 18.0442C144.879 18.0442 144.449 17.8761 144.139 17.54C143.827 17.204 143.672 16.6385 143.672 15.845V12.675H142.753V11.6282H143.672V10.4759L145.041 10.0625V11.6268H146.58V12.675H146.581Z" fill="white"/>
<path d="M153.978 17.9154H152.58V14.3413C152.58 13.2144 152.158 12.6503 151.314 12.6503C150.666 12.6503 150.224 12.977 149.981 13.6305C149.94 13.7678 149.916 13.9359 149.916 14.1333V17.914H148.52V8.74414H149.916V12.5329H149.942C150.382 11.8434 151.013 11.4994 151.83 11.4994C152.409 11.4994 152.888 11.6887 153.268 12.0688C153.741 12.5423 153.978 13.2464 153.978 14.1773V17.9154V17.9154Z" fill="white"/>
<path d="M161.609 14.4762C161.609 14.7269 161.59 14.9376 161.557 15.1097H157.366C157.385 15.7311 157.585 16.2045 157.973 16.5326C158.328 16.826 158.785 16.9727 159.345 16.9727C159.965 16.9727 160.53 16.874 161.04 16.6753L161.258 17.6462C160.662 17.9049 159.961 18.0343 159.149 18.0343C158.176 18.0343 157.409 17.7475 156.854 17.1741C156.297 16.6006 156.021 15.8311 156.021 14.8656C156.021 13.9174 156.278 13.1279 156.797 12.4984C157.338 11.8263 158.07 11.4902 158.994 11.4902C159.898 11.4902 160.585 11.8263 161.049 12.4984C161.424 13.0319 161.609 13.692 161.609 14.4762ZM160.276 14.1148C160.286 13.7 160.194 13.3426 160.005 13.0412C159.762 12.6531 159.393 12.4584 158.893 12.4584C158.437 12.4584 158.065 12.6478 157.781 13.0279C157.549 13.3306 157.412 13.692 157.366 14.1148H160.276Z" fill="white"/>
</g>
<defs>
<clipPath id="clip0_625_5519">
<rect width="180" height="53.3444" fill="white"/>
</clipPath>
</defs>
</svg>
