<svg width="5" height="10" viewBox="0 0 5 10" fill="none" xmlns="http://www.w3.org/2000/svg">
<path d="M4.8252 5C4.8208 4.76709 4.7417 4.58252 4.55273 4.39795L1.24365 1.16357C1.10303 1.02734 0.94043 0.957031 0.738281 0.957031C0.333984 0.957031 0 1.28662 0 1.68652C0 1.88867 0.0834961 2.07324 0.237305 2.22705L3.10254 4.99561L0.237305 7.77295C0.0834961 7.92236 0 8.10693 0 8.31348C0 8.71338 0.333984 9.04297 0.738281 9.04297C0.936035 9.04297 1.10303 8.97705 1.24365 8.83643L4.55273 5.60205C4.7417 5.41748 4.8252 5.22852 4.8252 5Z" fill="#AFAFAF" fill-opacity="0.6"/>
</svg>
