<svg width="28" height="28" viewBox="0 0 28 28" fill="none" xmlns="http://www.w3.org/2000/svg">
<path d="M18.9976 14.5102C18.9981 14.7268 18.9168 14.9367 18.7678 15.1034L13.7703 20.6651C13.6007 20.8544 13.3569 20.9735 13.0926 20.9961C12.8283 21.0187 12.5652 20.943 12.3611 20.7856C12.157 20.6283 12.0286 20.4022 12.0042 20.1571C11.9799 19.912 12.0615 19.6679 12.2311 19.4786L16.7088 14.5102L12.391 9.54175C12.308 9.44693 12.246 9.33783 12.2086 9.22072C12.1712 9.10361 12.1591 8.9808 12.173 8.85935C12.187 8.73789 12.2267 8.62018 12.2898 8.51299C12.3529 8.4058 12.4383 8.31124 12.541 8.23475C12.6437 8.14986 12.7643 8.08557 12.8951 8.0459C13.0259 8.00623 13.1641 7.99205 13.3011 8.00423C13.4381 8.01642 13.5709 8.0547 13.6912 8.1167C13.8115 8.1787 13.9167 8.26307 14.0002 8.36452L18.8277 13.9262C18.9532 14.0978 19.013 14.3034 18.9976 14.5102V14.5102Z" fill="black"/>
<circle cx="14" cy="14" r="13" stroke="black" stroke-width="2"/>
</svg>
