<svg width="28" height="28" viewBox="0 0 28 28" fill="none" xmlns="http://www.w3.org/2000/svg">
<path d="M9.00236 13.4898C9.00191 13.2732 9.08324 13.0633 9.23224 12.8966L14.2297 7.33486C14.3993 7.14556 14.6431 7.02652 14.9074 7.00392C15.1717 6.98132 15.4348 7.05702 15.6389 7.21436C15.843 7.3717 15.9714 7.59779 15.9958 7.8429C16.0201 8.08801 15.9385 8.33206 15.7689 8.52136L11.2912 13.4898L15.6089 18.4583C15.692 18.5531 15.754 18.6622 15.7914 18.7793C15.8288 18.8964 15.8409 19.0192 15.827 19.1407C15.813 19.2621 15.7733 19.3798 15.7102 19.487C15.6471 19.5942 15.5617 19.6888 15.459 19.7653C15.3563 19.8501 15.2357 19.9144 15.1049 19.9541C14.9741 19.9938 14.8359 20.0079 14.6989 19.9958C14.5619 19.9836 14.4291 19.9453 14.3088 19.8833C14.1885 19.8213 14.0833 19.7369 13.9998 19.6355L9.17228 14.0738C9.04683 13.9022 8.987 13.6966 9.00236 13.4898Z" fill="black"/>
<circle cx="14" cy="14" r="13" transform="rotate(-180 14 14)" stroke="black" stroke-width="2"/>
</svg>
