<svg width="48" height="48" viewBox="0 0 48 48" fill="none" xmlns="http://www.w3.org/2000/svg">
<path opacity="0.3" d="M14 16L42 16L42 10L14 10L14 16Z" fill="#898989"/>
<path d="M40.5443 23.851L40.6508 23.9306C41.0378 24.2624 41.109 24.8258 40.835 25.2404L40.7593 25.3407L29.0519 39L17.3445 25.3407C17.1117 25.0691 17.0417 24.6938 17.161 24.3566C17.3319 23.8731 17.8368 23.6033 18.3249 23.7146L18.4371 23.7471L26 26.42L26 23C26 19.134 22.866 16 19 16L6 16L6 10L19 10C26.1797 10 32 15.8203 32 23L32 26.457L39.6666 23.7471C39.9617 23.6428 40.2859 23.6833 40.5443 23.851L40.6508 23.9306L40.5443 23.851Z" fill="#373737"/>
</svg>
