<svg width="30" height="30" viewBox="0 0 30 30" fill="none" xmlns="http://www.w3.org/2000/svg">
<path opacity="0.3" d="M10 21.25V3.75H6.25V21.25H10Z" fill="#898989"/>
<path d="M14.9069 4.6598L14.9567 4.59328C15.164 4.35135 15.5162 4.30688 15.7752 4.47814L15.8379 4.52547L24.375 11.8426L15.8379 19.1597C15.6682 19.3052 15.4336 19.3489 15.2229 19.2744C14.9207 19.1676 14.752 18.852 14.8216 18.5469L14.8419 18.4768L16.5125 13.75H14.375C11.9588 13.75 10 15.7088 10 18.125V26.25H6.25V18.125C6.25 13.6377 9.88769 10 14.375 10H16.5356L14.8419 5.20834C14.7767 5.02391 14.8021 4.82129 14.9069 4.6598L14.9567 4.59328L14.9069 4.6598Z" fill="white"/>
</svg>
