<svg width="30" height="30" viewBox="0 0 30 30" fill="none" xmlns="http://www.w3.org/2000/svg">
<path opacity="0.3" d="M5.75 4L23.25 4L23.25 0.25L5.75 0.249999L5.75 4Z" fill="#898989"/>
<path d="M22.3402 8.9069L22.4067 8.95665C22.6486 9.16401 22.6931 9.51615 22.5219 9.77524L22.4745 9.83793L15.1574 18.375L7.84031 9.83793C7.69482 9.66818 7.65107 9.43365 7.7256 9.22287C7.83244 8.92067 8.14797 8.75204 8.45307 8.82161L8.52319 8.84194L13.25 10.5125L13.25 8.375C13.25 5.95875 11.2912 4 8.875 4L0.75 4L0.75 0.249999L8.875 0.249999C13.3623 0.25 17 3.88769 17 8.375L17 10.5356L21.7917 8.84194C21.9761 8.77674 22.1787 8.80207 22.3402 8.9069L22.4067 8.95665L22.3402 8.9069Z" fill="white"/>
</svg>
