<svg width="48" height="48" viewBox="0 0 48 48" fill="none" xmlns="http://www.w3.org/2000/svg">
<path opacity="0.3" d="M16 34V6H10V34H16Z" fill="#898989"/>
<path d="M23.851 7.45568L23.9306 7.34925C24.2624 6.96217 24.8258 6.891 25.2404 7.16503L25.3407 7.24074L39 18.9481L25.3407 30.6555C25.0691 30.8883 24.6938 30.9583 24.3566 30.839C23.8731 30.6681 23.6033 30.1632 23.7146 29.6751L23.7471 29.5629L26.42 22H23C19.134 22 16 25.134 16 29V42H10V29C10 21.8203 15.8203 16 23 16H26.457L23.7471 8.33335C23.6428 8.03826 23.6833 7.71406 23.851 7.45568L23.9306 7.34925L23.851 7.45568Z" fill="#363636"/>
</svg>
