<svg width="180" height="54" viewBox="0 0 180 54" fill="none" xmlns="http://www.w3.org/2000/svg">
<g clip-path="url(#clip0_625_5551)">
<path fill-rule="evenodd" clip-rule="evenodd" d="M173.331 53.1145H6.66912C2.99349 53.1145 0 50.1211 0 46.4752V6.63932C0 2.98024 2.99349 0 6.66912 0H173.331C177.003 0 180 2.98024 180 6.63932V46.4752C180 50.1211 177.003 53.1145 173.331 53.1145Z" fill="black"/>
<path fill-rule="evenodd" clip-rule="evenodd" d="M173.331 1.06295C176.414 1.06295 178.937 3.56967 178.937 6.63932V46.4752C178.937 49.5449 176.43 52.0516 173.331 52.0516H6.66912C3.58622 52.0516 1.06295 49.5449 1.06295 46.4752V6.63932C1.06295 3.56967 3.56967 1.06295 6.66912 1.06295H173.331ZM173.331 0H6.66912C2.99349 0 0 2.99349 0 6.63932V46.4752C0 50.1343 2.99349 53.1145 6.66912 53.1145H173.331C177.003 53.1145 180 50.1343 180 46.4752V6.63932C180 2.99349 177.003 0 173.331 0Z" fill="#A6A6A6"/>
<path d="M94.8248 17.5688C93.6228 17.5688 92.6095 17.1483 91.8081 16.3204C91.0134 15.5158 90.5697 14.4065 90.5895 13.274C90.5895 12.0653 91.0001 11.0421 91.8081 10.2308C92.6062 9.40297 93.6194 8.98242 94.8215 8.98242C96.0103 8.98242 97.0235 9.40297 97.8381 10.2308C98.6461 11.0686 99.0567 12.0918 99.0567 13.274C99.0435 14.4859 98.6329 15.5092 97.8381 16.3171C97.0401 17.1516 96.0268 17.5688 94.8248 17.5688ZM59.0586 17.5688C57.883 17.5688 56.8631 17.1549 56.0287 16.337C55.2008 15.5224 54.7803 14.4926 54.7803 13.2773C54.7803 12.062 55.2008 11.0322 56.0287 10.2176C56.8466 9.39966 57.8665 8.98573 59.0586 8.98573C59.6414 8.98573 60.2076 9.10163 60.7507 9.33674C61.2838 9.56523 61.7176 9.87649 62.0388 10.2573L62.1183 10.3533L61.2209 11.2342L61.1282 11.1249C60.6215 10.5222 59.9427 10.2275 59.0453 10.2275C58.244 10.2275 57.5453 10.5123 56.9691 11.0752C56.3896 11.6415 56.0949 12.3832 56.0949 13.2806C56.0949 14.178 56.3896 14.9197 56.9691 15.486C57.5453 16.0489 58.244 16.3337 59.0453 16.3337C59.8997 16.3337 60.6182 16.0489 61.1779 15.486C61.509 15.1548 61.7143 14.6912 61.7872 14.1051H58.9096V12.8667H63.0223L63.0388 12.9793C63.0687 13.1879 63.0985 13.4031 63.0985 13.6018C63.0985 14.7442 62.7541 15.6681 62.0719 16.3502C61.2971 17.1582 60.2838 17.5688 59.0586 17.5688ZM106.613 17.3933H105.345L101.461 11.1779L101.494 12.2971V17.39H100.226V9.16124H101.673L101.712 9.22415L105.365 15.0787L105.332 13.9627V9.16124H106.613V17.3933ZM85.2946 17.3933H84.0098V10.3997H81.7813V9.16124H87.5199V10.3997H85.2913V17.3933H85.2946ZM80.7349 17.3933H79.4534V9.16124H80.7349V17.3933ZM73.5326 17.3933H72.2511V10.3997H70.0226V9.16124H75.7612V10.3997H73.5326V17.3933ZM69.2113 17.3801H64.2972V9.16124H69.2113V10.3997H65.582V12.6581H68.8569V13.8833H65.582V16.1416H69.2113V17.3801ZM92.7485 15.4694C93.3214 16.0423 94.0168 16.3304 94.8248 16.3304C95.6559 16.3304 96.3348 16.0489 96.901 15.4694C97.464 14.9065 97.7487 14.168 97.7487 13.2773C97.7487 12.3865 97.4639 11.6448 96.9043 11.0851C96.3315 10.5123 95.6328 10.2242 94.8281 10.2242C93.9969 10.2242 93.3181 10.5057 92.7552 11.0851C92.1922 11.6481 91.9075 12.3865 91.9075 13.2773C91.9075 14.168 92.1889 14.9098 92.7485 15.4694Z" fill="white"/>
<path fill-rule="evenodd" clip-rule="evenodd" d="M90.4701 28.8889C87.3408 28.8889 84.8043 31.2632 84.8043 34.5382C84.8043 37.7833 87.3574 40.1874 90.4701 40.1874C93.5993 40.1874 96.1358 37.7966 96.1358 34.5382C96.1358 31.2632 93.5993 28.8889 90.4701 28.8889ZM90.4701 37.9489C88.7581 37.9489 87.2845 36.5316 87.2845 34.5249C87.2845 32.4884 88.7614 31.1009 90.4701 31.1009C92.1821 31.1009 93.6556 32.4884 93.6556 34.5249C93.6589 36.5449 92.1821 37.9489 90.4701 37.9489ZM78.1087 28.8889C74.9794 28.8889 72.4429 31.2632 72.4429 34.5382C72.4429 37.7833 74.996 40.1874 78.1087 40.1874C81.2379 40.1874 83.7744 37.7966 83.7744 34.5382C83.7744 31.2632 81.2346 28.8889 78.1087 28.8889ZM78.1087 37.9489C76.3967 37.9489 74.9231 36.5316 74.9231 34.5249C74.9231 32.4884 76.4 31.1009 78.1087 31.1009C79.8207 31.1009 81.2942 32.4884 81.2942 34.5249C81.2942 36.5449 79.8207 37.9489 78.1087 37.9489ZM63.3995 30.6142V33.005H69.1381C68.9626 34.3461 68.5189 35.3362 67.8401 36.015C66.999 36.8561 65.7009 37.7701 63.4128 37.7701C59.8861 37.7701 57.1278 34.9223 57.1278 31.3957C57.1278 27.869 59.8861 25.0212 63.4128 25.0212C65.3168 25.0212 66.7043 25.7729 67.7341 26.7332L69.4295 25.0378C67.999 23.6669 66.095 22.6172 63.426 22.6172C58.5881 22.6172 54.5283 26.5577 54.5283 31.3824C54.5283 36.2203 58.5848 40.1476 63.426 40.1476C66.0387 40.1476 67.999 39.2933 69.5488 37.684C71.1283 36.1044 71.6283 33.8759 71.6283 32.0778C71.6283 31.5182 71.5853 31.0148 71.4958 30.5877H63.3962C63.3995 30.5844 63.3995 30.6142 63.3995 30.6142ZM123.564 32.4752C123.09 31.2069 121.66 28.8757 118.726 28.8757C115.819 28.8757 113.401 31.1639 113.401 34.5249C113.401 37.6972 115.792 40.1741 119.008 40.1741C121.59 40.1741 123.094 38.5946 123.713 37.6674L121.796 36.3826C121.16 37.3263 120.276 37.9456 119.021 37.9456C117.753 37.9456 116.865 37.3694 116.276 36.2336L123.829 33.1043C123.829 33.1076 123.564 32.4752 123.564 32.4752ZM115.862 34.3627C115.802 32.1805 117.557 31.0711 118.812 31.0711C119.802 31.0711 120.627 31.5579 120.908 32.2666L115.862 34.3627ZM109.726 39.8364H112.206V23.2397H109.726V39.8364ZM105.653 30.144H105.563C105.004 29.4784 103.941 28.8757 102.583 28.8757C99.7651 28.8757 97.169 31.3559 97.169 34.5415C97.169 37.7138 99.7519 40.1642 102.583 40.1642C103.924 40.1642 105.004 39.5582 105.563 38.8794H105.653V39.6907C105.653 41.8464 104.5 43.0087 102.643 43.0087C101.123 43.0087 100.179 41.9159 99.7949 41.002L97.6392 41.9027C98.2584 43.3928 99.9108 45.2372 102.639 45.2372C105.547 45.2372 108.01 43.5252 108.01 39.3496V29.2135H105.666V30.144C105.669 30.144 105.653 30.144 105.653 30.144ZM102.805 37.9489C101.093 37.9489 99.6625 36.5184 99.6625 34.5415C99.6625 32.548 101.093 31.1043 102.805 31.1043C104.5 31.1043 105.815 32.5646 105.815 34.5415C105.832 36.5184 104.504 37.9489 102.805 37.9489ZM135.177 23.2397H129.246V39.8364H131.727V33.5514H135.18C137.925 33.5514 140.624 31.5612 140.624 28.4022C140.624 25.2431 137.935 23.2397 135.177 23.2397ZM135.25 31.2334H131.723V25.5378H135.25C137.108 25.5378 138.157 27.071 138.157 28.3856C138.157 29.687 137.094 31.2334 135.25 31.2334ZM150.565 28.8591C148.764 28.8591 146.906 29.6572 146.138 31.3957L148.336 32.3096C148.81 31.3957 149.678 31.0844 150.595 31.0844C151.88 31.0844 153.178 31.8526 153.208 33.2235V33.399C152.764 33.1474 151.79 32.7633 150.625 32.7633C148.25 32.7633 145.843 34.0613 145.843 36.4952C145.843 38.7237 147.79 40.1543 149.959 40.1543C151.625 40.1543 152.542 39.4026 153.115 38.5317H153.204V39.8165H155.595V33.4586C155.595 30.4983 153.396 28.8591 150.565 28.8591ZM150.254 37.9489C149.442 37.9489 148.307 37.5515 148.307 36.5316C148.307 35.2468 149.724 34.76 150.933 34.76C152.025 34.76 152.542 34.9951 153.191 35.3196C153.012 36.8098 151.754 37.9356 150.254 37.9489ZM164.317 29.2135L161.469 36.4124H161.38L158.43 29.2135H155.761L160.188 39.2767L157.665 44.8697H160.248L167.059 29.2135H164.317ZM141.992 39.8364H144.472V23.2397H141.992V39.8364Z" fill="white"/>
<path fill-rule="evenodd" clip-rule="evenodd" d="M13.855 10.0035C13.4709 10.4174 13.249 11.0499 13.249 11.8777V41.2397C13.249 42.0676 13.4709 42.7 13.8683 43.0974L13.9709 43.1868L30.4218 26.7359V26.3683L13.9577 9.91406L13.855 10.0035Z" fill="url(#paint0_linear_625_5551)"/>
<path fill-rule="evenodd" clip-rule="evenodd" d="M35.8957 32.235L30.4087 26.748V26.3639L35.8957 20.877L36.0149 20.9498L42.5052 24.6387C44.3629 25.6851 44.3629 27.4136 42.5052 28.4733L36.0149 32.1621L35.8957 32.235Z" fill="url(#paint1_linear_625_5551)"/>
<path fill-rule="evenodd" clip-rule="evenodd" d="M36.0147 32.1648L30.4086 26.5586L13.855 43.1122C14.461 43.7612 15.4776 43.8341 16.6134 43.2016L36.0147 32.1648Z" fill="url(#paint2_linear_625_5551)"/>
<path fill-rule="evenodd" clip-rule="evenodd" d="M36.0147 20.951L16.6134 9.9307C15.4776 9.28167 14.4577 9.37108 13.855 10.0201L30.4086 26.5571L36.0147 20.951Z" fill="url(#paint3_linear_625_5551)"/>
<path opacity="0.2" fill-rule="evenodd" clip-rule="evenodd" d="M35.8955 32.0449L16.6265 42.9924C15.5503 43.6116 14.59 43.5685 13.9708 43.0056L13.8682 43.1083L13.9708 43.1977C14.59 43.7573 15.5503 43.8036 16.6265 43.1844L36.028 32.1641L35.8955 32.0449Z" fill="black"/>
<path opacity="0.12" fill-rule="evenodd" clip-rule="evenodd" d="M42.505 28.2838L35.8789 32.0456L35.9981 32.1648L42.4884 28.4759C43.4189 27.9461 43.8759 27.2507 43.8759 26.5586C43.8196 27.1944 43.3461 27.797 42.505 28.2838Z" fill="black"/>
<path opacity="0.25" fill-rule="evenodd" clip-rule="evenodd" d="M16.6134 10.1227L42.5051 24.8318C43.3462 25.3054 43.8197 25.9246 43.8925 26.5571C43.8925 25.865 43.4356 25.1696 42.5051 24.6398L16.6134 9.93062C14.7557 8.86767 13.249 9.75512 13.249 11.8777V12.0698C13.249 9.94387 14.7557 9.07298 16.6134 10.1227Z" fill="white"/>
</g>
<defs>
<linearGradient id="paint0_linear_625_5551" x1="28.9462" y1="11.5609" x2="2.59466" y2="18.5823" gradientUnits="userSpaceOnUse">
<stop stop-color="#00A0FF"/>
<stop offset="0.00657" stop-color="#00A1FF"/>
<stop offset="0.2601" stop-color="#00BEFF"/>
<stop offset="0.5122" stop-color="#00D2FF"/>
<stop offset="0.7604" stop-color="#00DFFF"/>
<stop offset="1" stop-color="#00E3FF"/>
</linearGradient>
<linearGradient id="paint1_linear_625_5551" x1="44.9278" y1="26.556" x2="12.7976" y2="26.556" gradientUnits="userSpaceOnUse">
<stop stop-color="#FFE000"/>
<stop offset="0.4087" stop-color="#FFBD00"/>
<stop offset="0.7754" stop-color="#FFA500"/>
<stop offset="1" stop-color="#FF9C00"/>
</linearGradient>
<linearGradient id="paint2_linear_625_5551" x1="32.9663" y1="29.6092" x2="11.8114" y2="65.2146" gradientUnits="userSpaceOnUse">
<stop stop-color="#FF3A44"/>
<stop offset="1" stop-color="#C31162"/>
</linearGradient>
<linearGradient id="paint3_linear_625_5551" x1="9.6866" y1="0.237281" x2="19.1247" y2="16.1392" gradientUnits="userSpaceOnUse">
<stop stop-color="#32A071"/>
<stop offset="0.0685" stop-color="#2DA771"/>
<stop offset="0.4762" stop-color="#15CF74"/>
<stop offset="0.8009" stop-color="#06E775"/>
<stop offset="1" stop-color="#00F076"/>
</linearGradient>
<clipPath id="clip0_625_5551">
<rect width="180" height="53.1145" fill="white"/>
</clipPath>
</defs>
</svg>
