<svg width="13" height="8" viewBox="0 0 13 8" fill="none" xmlns="http://www.w3.org/2000/svg">
<path d="M6.4898 7.49764C6.27322 7.49809 6.06333 7.41676 5.89656 7.26776L0.334863 2.27034C0.145564 2.10069 0.0265212 1.8569 0.00392239 1.59261C-0.0186764 1.32832 0.05702 1.06518 0.214359 0.861065C0.371698 0.656954 0.597792 0.528596 0.842901 0.504229C1.08801 0.479862 1.33206 0.561481 1.52136 0.731132L6.4898 5.20882L11.4583 0.89105C11.5531 0.808027 11.6622 0.746028 11.7793 0.708615C11.8964 0.671203 12.0192 0.659115 12.1407 0.673047C12.2621 0.686979 12.3798 0.726656 12.487 0.789797C12.5942 0.852938 12.6888 0.938299 12.7653 1.04097C12.8501 1.14374 12.9144 1.26431 12.9541 1.39511C12.9938 1.52592 13.0079 1.66415 12.9958 1.80114C12.9836 1.93813 12.9453 2.07093 12.8833 2.19123C12.8213 2.31152 12.7369 2.41672 12.6355 2.50022L7.07378 7.32772C6.90222 7.45317 6.69661 7.513 6.4898 7.49764Z" fill="#C9C9C9"/>
</svg>
