<svg width="25" height="25" viewBox="0 0 25 25" fill="none" xmlns="http://www.w3.org/2000/svg">
<path d="M0.446289 4.66741C0.446289 3.54816 0.89091 2.47475 1.68234 1.68332C2.47377 0.891887 3.54718 0.447266 4.66643 0.447266H17.7105C18.8298 0.447266 19.9032 0.891887 20.6946 1.68332C21.486 2.47475 21.9307 3.54816 21.9307 4.66741V10.5756C21.2055 10.2042 20.43 9.94055 19.6288 9.79297V4.66741C19.6288 3.60854 18.7694 2.74916 17.7105 2.74916H4.66643C3.60756 2.74916 2.74819 3.60854 2.74819 4.66741V17.7115C2.74819 18.7704 3.60756 19.6297 4.66643 19.6297H9.79199C9.93957 20.431 10.2032 21.2065 10.5746 21.9316H4.66643C3.54718 21.9316 2.47377 21.487 1.68234 20.6956C0.89091 19.9042 0.446289 18.8307 0.446289 17.7115V4.66741Z" fill="black"/>
<path d="M24.9999 18.0951C24.9999 19.9266 24.2723 21.6831 22.9772 22.9782C21.6822 24.2733 19.9257 25.0008 18.0942 25.0008C16.2627 25.0008 14.5062 24.2733 13.2111 22.9782C11.916 21.6831 11.1885 19.9266 11.1885 18.0951C11.1885 16.2636 11.916 14.5072 13.2111 13.2121C14.5062 11.917 16.2627 11.1895 18.0942 11.1895C19.9257 11.1895 21.6822 11.917 22.9772 13.2121C24.2723 14.5072 24.9999 16.2636 24.9999 18.0951ZM18.8615 15.0259C18.8615 14.8224 18.7806 14.6273 18.6367 14.4834C18.4928 14.3395 18.2977 14.2586 18.0942 14.2586C17.8907 14.2586 17.6955 14.3395 17.5516 14.4834C17.4077 14.6273 17.3269 14.8224 17.3269 15.0259V17.3278H15.025C14.8215 17.3278 14.6263 17.4087 14.4824 17.5526C14.3385 17.6965 14.2577 17.8916 14.2577 18.0951C14.2577 18.2986 14.3385 18.4938 14.4824 18.6377C14.6263 18.7816 14.8215 18.8624 15.025 18.8624H17.3269V21.1643C17.3269 21.3678 17.4077 21.563 17.5516 21.7069C17.6955 21.8508 17.8907 21.9316 18.0942 21.9316C18.2977 21.9316 18.4928 21.8508 18.6367 21.7069C18.7806 21.563 18.8615 21.3678 18.8615 21.1643V18.8624H21.1634C21.3669 18.8624 21.562 18.7816 21.7059 18.6377C21.8498 18.4938 21.9307 18.2986 21.9307 18.0951C21.9307 17.8916 21.8498 17.6965 21.7059 17.5526C21.562 17.4087 21.3669 17.3278 21.1634 17.3278H18.8615V15.0259Z" fill="black"/>
</svg>
