<svg width="25" height="25" viewBox="0 0 25 25" fill="none" xmlns="http://www.w3.org/2000/svg">
<path d="M0.446533 4.66741C0.446533 3.54816 0.891154 2.47475 1.68259 1.68332C2.47402 0.891887 3.54743 0.447266 4.66668 0.447266H17.7108C18.83 0.447266 19.9034 0.891887 20.6949 1.68332C21.4863 2.47475 21.9309 3.54816 21.9309 4.66741V10.5756C21.2057 10.2042 20.4303 9.94055 19.629 9.79297V4.66741C19.629 3.60854 18.7696 2.74916 17.7108 2.74916H4.66668C3.60781 2.74916 2.74843 3.60854 2.74843 4.66741V17.7115C2.74843 18.7704 3.60781 19.6297 4.66668 19.6297H9.79224C9.93982 20.431 10.2035 21.2065 10.5749 21.9316H4.66668C3.54743 21.9316 2.47402 21.487 1.68259 20.6956C0.891154 19.9042 0.446533 18.8307 0.446533 17.7115V4.66741Z" fill="white"/>
<path d="M25.0001 18.0951C25.0001 19.9266 24.2725 21.6831 22.9775 22.9782C21.6824 24.2733 19.9259 25.0008 18.0944 25.0008C16.2629 25.0008 14.5064 24.2733 13.2114 22.9782C11.9163 21.6831 11.1887 19.9266 11.1887 18.0951C11.1887 16.2636 11.9163 14.5072 13.2114 13.2121C14.5064 11.917 16.2629 11.1895 18.0944 11.1895C19.9259 11.1895 21.6824 11.917 22.9775 13.2121C24.2725 14.5072 25.0001 16.2636 25.0001 18.0951ZM18.8617 15.0259C18.8617 14.8224 18.7809 14.6273 18.637 14.4834C18.4931 14.3395 18.2979 14.2586 18.0944 14.2586C17.8909 14.2586 17.6957 14.3395 17.5518 14.4834C17.408 14.6273 17.3271 14.8224 17.3271 15.0259V17.3278H15.0252C14.8217 17.3278 14.6265 17.4087 14.4827 17.5526C14.3388 17.6965 14.2579 17.8916 14.2579 18.0951C14.2579 18.2986 14.3388 18.4938 14.4827 18.6377C14.6265 18.7816 14.8217 18.8624 15.0252 18.8624H17.3271V21.1643C17.3271 21.3678 17.408 21.563 17.5518 21.7069C17.6957 21.8508 17.8909 21.9316 18.0944 21.9316C18.2979 21.9316 18.4931 21.8508 18.637 21.7069C18.7809 21.563 18.8617 21.3678 18.8617 21.1643V18.8624H21.1636C21.3671 18.8624 21.5623 18.7816 21.7062 18.6377C21.8501 18.4938 21.9309 18.2986 21.9309 18.0951C21.9309 17.8916 21.8501 17.6965 21.7062 17.5526C21.5623 17.4087 21.3671 17.3278 21.1636 17.3278H18.8617V15.0259Z" fill="white"/>
</svg>
