<svg width="25" height="25" viewBox="0 0 25 26" fill="none" xmlns="http://www.w3.org/2000/svg">
<path d="M0.446289 5.16741C0.446289 4.04816 0.89091 2.97475 1.68234 2.18332C2.47377 1.39189 3.54718 0.947266 4.66643 0.947266H17.7105C18.8298 0.947266 19.9032 1.39189 20.6946 2.18332C21.486 2.97475 21.9307 4.04816 21.9307 5.16741V11.0756C21.2055 10.7042 20.43 10.4405 19.6288 10.293V5.16741C19.6288 4.10854 18.7694 3.24916 17.7105 3.24916H4.66643C3.60756 3.24916 2.74819 4.10854 2.74819 5.16741V18.2115C2.74819 19.2704 3.60756 20.1297 4.66643 20.1297H9.79199C9.93957 20.931 10.2032 21.7065 10.5746 22.4316H4.66643C3.54718 22.4316 2.47377 21.987 1.68234 21.1956C0.89091 20.4042 0.446289 19.3307 0.446289 18.2115V5.16741Z" fill="black"/>
<path d="M24.9999 18.5951C24.9999 20.4266 24.2723 22.1831 22.9772 23.4782C21.6822 24.7733 19.9257 25.5008 18.0942 25.5008C16.2627 25.5008 14.5062 24.7733 13.2111 23.4782C11.916 22.1831 11.1885 20.4266 11.1885 18.5951C11.1885 16.7636 11.916 15.0072 13.2111 13.7121C14.5062 12.417 16.2627 11.6895 18.0942 11.6895C19.9257 11.6895 21.6822 12.417 22.9772 13.7121C24.2723 15.0072 24.9999 16.7636 24.9999 18.5951ZM18.8615 15.5259C18.8615 15.3224 18.7806 15.1273 18.6367 14.9834C18.4928 14.8395 18.2977 14.7586 18.0942 14.7586C17.8907 14.7586 17.6955 14.8395 17.5516 14.9834C17.4077 15.1273 17.3269 15.3224 17.3269 15.5259V17.8278H15.025C14.8215 17.8278 14.6263 17.9087 14.4824 18.0526C14.3385 18.1965 14.2577 18.3916 14.2577 18.5951C14.2577 18.7986 14.3385 18.9938 14.4824 19.1377C14.6263 19.2816 14.8215 19.3624 15.025 19.3624H17.3269V21.6643C17.3269 21.8678 17.4077 22.063 17.5516 22.2069C17.6955 22.3508 17.8907 22.4316 18.0942 22.4316C18.2977 22.4316 18.4928 22.3508 18.6367 22.2069C18.7806 22.063 18.8615 21.8678 18.8615 21.6643V19.3624H21.1634C21.3669 19.3624 21.562 19.2816 21.7059 19.1377C21.8498 18.9938 21.9307 18.7986 21.9307 18.5951C21.9307 18.3916 21.8498 18.1965 21.7059 18.0526C21.562 17.9087 21.3669 17.8278 21.1634 17.8278H18.8615V15.5259Z" fill="black"/>
</svg>
