<svg width="19" height="19" viewBox="0 0 19 19" fill="none" xmlns="http://www.w3.org/2000/svg">
<path fill-rule="evenodd" clip-rule="evenodd" d="M9.5 0C4.25341 0 0 4.25341 0 9.5C0 14.7466 4.25341 19 9.5 19C14.7466 19 19 14.7466 19 9.5C19 4.25341 14.7466 0 9.5 0ZM10.3636 12.9545C10.3636 13.1836 10.2726 13.4033 10.1107 13.5652C9.94872 13.7272 9.72905 13.8182 9.5 13.8182C9.27095 13.8182 9.05128 13.7272 8.88932 13.5652C8.72735 13.4033 8.63636 13.1836 8.63636 12.9545V10.3636H6.04545C5.8164 10.3636 5.59674 10.2726 5.43477 10.1107C5.27281 9.94872 5.18182 9.72905 5.18182 9.5C5.18182 9.27095 5.27281 9.05128 5.43477 8.88932C5.59674 8.72735 5.8164 8.63636 6.04545 8.63636H8.63636V6.04545C8.63636 5.8164 8.72735 5.59674 8.88932 5.43477C9.05128 5.27281 9.27095 5.18182 9.5 5.18182C9.72905 5.18182 9.94872 5.27281 10.1107 5.43477C10.2726 5.59674 10.3636 5.8164 10.3636 6.04545V8.63636H12.9545C13.1836 8.63636 13.4033 8.72735 13.5652 8.88932C13.7272 9.05128 13.8182 9.27095 13.8182 9.5C13.8182 9.72905 13.7272 9.94872 13.5652 10.1107C13.4033 10.2726 13.1836 10.3636 12.9545 10.3636H10.3636V12.9545Z" fill="white"/>
</svg>
