<svg width="24.9" height="24.9" viewBox="0 0 25 26" fill="none" xmlns="http://www.w3.org/2000/svg">
<path d="M12.4512 25.6367C19.2627 25.6367 24.9023 19.9849 24.9023 13.1855C24.9023 6.37402 19.2505 0.734375 12.439 0.734375C5.63965 0.734375 0 6.37402 0 13.1855C0 19.9849 5.65186 25.6367 12.4512 25.6367ZM12.4512 23.5615C6.68945 23.5615 2.0874 18.9473 2.0874 13.1855C2.0874 7.42383 6.67725 2.80957 12.439 2.80957C18.2007 2.80957 22.8149 7.42383 22.8271 13.1855C22.8394 18.9473 18.2129 23.5615 12.4512 23.5615ZM6.75049 14.9678C7.72705 14.9678 8.52051 14.1621 8.52051 13.1855C8.52051 12.209 7.71484 11.4033 6.75049 11.4033C5.76172 11.4033 4.96826 12.209 4.96826 13.1855C4.96826 14.1621 5.76172 14.9678 6.75049 14.9678ZM12.439 14.9678C13.4155 14.9678 14.2212 14.1621 14.2212 13.1855C14.2212 12.209 13.4155 11.4033 12.439 11.4033C11.4624 11.4033 10.6567 12.209 10.6567 13.1855C10.6567 14.1621 11.4624 14.9678 12.439 14.9678ZM18.1396 14.9678C19.1162 14.9678 19.9097 14.1621 19.9097 13.1855C19.9097 12.209 19.1162 11.4033 18.1396 11.4033C17.1509 11.4033 16.3574 12.209 16.3574 13.1855C16.3574 14.1621 17.1509 14.9678 18.1396 14.9678Z" fill="#0A84FF"/>
</svg>
