<svg width="5" height="10" viewBox="0 0 5 10" fill="none" xmlns="http://www.w3.org/2000/svg">
<path d="M5 5C4.99561 4.76709 4.9165 4.58252 4.72754 4.39795L1.41846 1.16357C1.27783 1.02734 1.11523 0.957031 0.913086 0.957031C0.508789 0.957031 0.174805 1.28662 0.174805 1.68652C0.174805 1.88867 0.258301 2.07324 0.412109 2.22705L3.27734 4.99561L0.412109 7.77295C0.258301 7.92236 0.174805 8.10693 0.174805 8.31348C0.174805 8.71338 0.508789 9.04297 0.913086 9.04297C1.11084 9.04297 1.27783 8.97705 1.41846 8.83643L4.72754 5.60205C4.9165 5.41748 5 5.22852 5 5Z" fill="#EBEBF5" fill-opacity="0.6"/>
</svg>
