<svg width="25" height="25" viewBox="0 0 25 25" fill="none" xmlns="http://www.w3.org/2000/svg">
<path d="M10.2098 20.2262C12.427 20.2262 14.4716 19.516 16.1445 18.3325L22.4376 24.566C22.7297 24.8553 23.1147 25 23.5263 25C24.3893 25 25 24.3425 25 23.5008C25 23.1063 24.8672 22.7249 24.5751 22.4487L18.3218 16.2415C19.6362 14.5318 20.4195 12.4145 20.4195 10.1131C20.4195 4.55024 15.8258 0 10.2098 0C4.60701 0 0 4.53709 0 10.1131C0 15.676 4.59373 20.2262 10.2098 20.2262ZM10.2098 18.0431C5.82847 18.0431 2.20393 14.4529 2.20393 10.1131C2.20393 5.77328 5.82847 2.18306 10.2098 2.18306C14.5911 2.18306 18.2156 5.77328 18.2156 10.1131C18.2156 14.4529 14.5911 18.0431 10.2098 18.0431Z" fill="#3D3D3D" fill-opacity="0.6"/>
</svg>
